<svg width="19" height="21" viewBox="0 0 19 21" fill="none" xmlns="http://www.w3.org/2000/svg">
<path d="M9.325 1.75C10.1538 1.75 10.9487 2.07924 11.5347 2.66529C12.1208 3.25134 12.45 4.0462 12.45 4.875V5.5H6.2V4.875C6.2 4.0462 6.52924 3.25134 7.11529 2.66529C7.70134 2.07924 8.4962 1.75 9.325 1.75ZM13.7 5.5V4.875C13.7 3.71468 13.2391 2.60188 12.4186 1.78141C11.5981 0.960936 10.4853 0.5 9.325 0.5C8.16467 0.5 7.05188 0.960936 6.23141 1.78141C5.41093 2.60188 4.95 3.71468 4.95 4.875V5.5H0.574997V18C0.574997 18.663 0.838389 19.2989 1.30723 19.7678C1.77607 20.2366 2.41196 20.5 3.075 20.5H15.575C16.238 20.5 16.8739 20.2366 17.3428 19.7678C17.8116 19.2989 18.075 18.663 18.075 18V5.5H13.7Z" fill="#6B54D1"/>
</svg>
