<svg width="19" height="18" viewBox="0 0 19 18" fill="none" xmlns="http://www.w3.org/2000/svg">
<path d="M9.5 18C14.4235 18 18.5 13.9147 18.5 9C18.5 4.07647 14.4147 0 9.49118 0C4.57647 0 0.5 4.07647 0.5 9C0.5 13.9147 4.58529 18 9.5 18ZM6.38529 12.8471C5.98823 12.8471 5.66176 12.5118 5.66176 12.1059C5.66176 11.9118 5.74118 11.7353 5.87353 11.5941L8.45882 9.00882L5.87353 6.42353C5.74118 6.28235 5.66176 6.10588 5.66176 5.91176C5.66176 5.50588 5.98823 5.18824 6.38529 5.18824C6.59706 5.18824 6.76471 5.25882 6.89706 5.4L9.49118 7.98529L12.1118 5.39118C12.2618 5.24118 12.4206 5.17059 12.6147 5.17059C13.0118 5.17059 13.3382 5.49706 13.3382 5.89412C13.3382 6.09706 13.2765 6.25588 13.1265 6.41471L10.5324 9.00882L13.1176 11.5853C13.2588 11.7353 13.3294 11.9029 13.3294 12.1059C13.3294 12.5118 13.0029 12.8471 12.5971 12.8471C12.3941 12.8471 12.2176 12.7588 12.0765 12.6265L9.49118 10.0412L6.92353 12.6265C6.78235 12.7676 6.59706 12.8471 6.38529 12.8471Z" fill="#3C3C43" fill-opacity="0.6"/>
</svg>
