<svg width="21" height="21" viewBox="0 0 21 21" fill="none" xmlns="http://www.w3.org/2000/svg">
<path fill-rule="evenodd" clip-rule="evenodd" d="M20.3262 7.06217C20.326 8.38627 19.7165 9.67942 18.5776 10.7721C17.4387 11.8647 15.8236 12.7058 13.944 13.1852V14.1625H17.2753C17.8309 14.1788 18.2278 14.2994 18.456 14.5274C19.0736 15.1366 18.2278 15.7393 17.6424 16.1563C15.978 17.3552 12.2102 19.5281 11.3891 20.1617C11.2619 20.2672 11.0999 20.3524 10.9154 20.411C10.7309 20.4696 10.5287 20.5 10.3238 20.5C10.1188 20.5 9.91658 20.4696 9.73209 20.411C9.5476 20.3524 9.38567 20.2672 9.2584 20.1617C8.4076 19.5102 4.43389 17.2069 2.85384 16.0406C2.31062 15.6448 1.62601 15.0926 2.19651 14.5307C2.42968 14.3026 2.82159 14.1821 3.37722 14.1658H6.69856V13.1884C5.00248 12.7551 3.51861 12.026 2.40684 11.0798C1.29506 10.1336 0.597529 9.00613 0.389388 7.81884C0.181247 6.63155 0.470391 5.42946 1.22567 4.34211C1.98094 3.25475 3.17371 2.32334 4.67547 1.64823C6.17723 0.973117 7.93105 0.5799 9.74795 0.510943C11.5649 0.441986 13.376 0.699903 14.9862 1.25691C16.5964 1.81391 17.9446 2.64888 18.8856 3.67186C19.8266 4.69484 20.3247 5.86704 20.3262 7.06217ZM13.629 7.99879C13.6355 8.41217 13.4263 8.81456 13.0362 9.13902C12.5762 9.50178 11.9373 9.7473 11.2304 9.83292L11.1039 10.5562H9.25592L9.0302 10.3933L9.14182 9.88831C8.42482 9.83996 7.71587 9.74946 7.0235 9.61791L7.4551 7.92712L7.72547 7.79029C8.14081 8.00731 8.59784 8.18749 9.08477 8.3262C9.465 8.44791 9.87799 8.51931 10.3002 8.53632C10.5482 8.53632 10.6847 8.48094 10.6847 8.37343C10.6815 8.32918 10.6593 8.28641 10.6207 8.25009C10.5821 8.21377 10.5286 8.18537 10.4664 8.16819C10.2204 8.08627 9.96691 8.01446 9.70737 7.95318C9.29564 7.85629 8.89592 7.73866 8.51178 7.60134C8.16772 7.4734 7.87252 7.29571 7.64858 7.08172C7.38746 6.82603 7.25555 6.52284 7.27155 6.21515C7.26061 5.79992 7.47517 5.39571 7.87678 5.07492C8.32368 4.73657 8.92472 4.50181 9.59079 4.40545L9.70241 3.58122H11.4883L11.7587 3.74411L11.6645 4.32726C12.2808 4.36088 12.8883 4.44516 13.4727 4.57811L13.0436 6.19723L12.6269 6.27053C12.2644 6.11287 11.8758 5.98281 11.4685 5.88285C11.1713 5.80027 10.8553 5.75073 10.5334 5.73625C10.3101 5.73625 10.1985 5.78023 10.1985 5.87145C10.2014 5.91888 10.2245 5.96483 10.2653 6.00401C10.3061 6.04319 10.3629 6.07403 10.4292 6.09298C10.6811 6.17635 10.9403 6.24978 11.2056 6.31288C11.6194 6.40707 12.0223 6.52085 12.4111 6.65332C12.7493 6.77653 13.0396 6.94933 13.2594 7.15828C13.5114 7.40771 13.6372 7.70295 13.6191 8.00205L13.629 7.99879ZM10.325 1.8888C11.8838 1.88848 13.4078 2.19176 14.7041 2.76027C16.0004 3.32878 17.0108 4.13699 17.6076 5.08266C18.2043 6.02834 18.3606 7.06899 18.0566 8.073C17.7526 9.077 17.002 9.99924 15.8998 10.7231C14.7975 11.4469 13.3932 11.9398 11.8643 12.1394C10.3354 12.3391 8.75069 12.2365 7.31062 11.8446C5.87056 11.4527 4.63983 10.7891 3.7741 9.93786C2.90838 9.08659 2.44655 8.08583 2.44704 7.06217C2.44704 5.69011 3.27704 4.37424 4.75444 3.40405C6.23185 2.43385 8.23564 1.8888 10.325 1.8888Z" fill="#FCD40E"/>
</svg>
