<svg width="28" height="28" viewBox="0 0 28 28" fill="none" xmlns="http://www.w3.org/2000/svg">
<path d="M6.0559 18.5886L4.73588 19.5H6.34H15.66H17.2641L15.9441 18.5886C15.4614 18.2553 14.6862 17.9243 13.8242 17.6769C12.9547 17.4274 11.9523 17.25 11 17.25C10.0477 17.25 9.04534 17.4274 8.17582 17.6769C7.31375 17.9243 6.53858 18.2553 6.0559 18.5886ZM4.5 19.25C4.5 18.8508 4.69558 18.4647 5.10396 18.0874C5.51582 17.707 6.11023 17.37 6.8084 17.0904C8.20553 16.5308 9.89232 16.25 11 16.25C12.1077 16.25 13.7945 16.5308 15.1916 17.0904C15.8898 17.37 16.4842 17.707 16.896 18.0874C17.3044 18.4647 17.5 18.8508 17.5 19.25V20.5H4.5V19.25ZM14 10.5C14 12.1539 12.6539 13.5 11 13.5C9.34614 13.5 8 12.1539 8 10.5C8 8.84614 9.34614 7.5 11 7.5C12.6539 7.5 14 8.84614 14 10.5ZM13 10.5C13 9.39386 12.1061 8.5 11 8.5C9.89386 8.5 9 9.39386 9 10.5C9 11.6061 9.89386 12.5 11 12.5C12.1061 12.5 13 11.6061 13 10.5ZM20.5 19.25C20.5 18.1995 20.1433 17.3174 19.575 16.5841C20.3246 16.7621 21.077 17.0095 21.7242 17.3236C22.8858 17.8872 23.5 18.556 23.5 19.25V20.5H20.5V19.25ZM20 10.5C20 12.1539 18.6539 13.5 17 13.5C16.7399 13.5 16.4897 13.4645 16.2485 13.3987C16.7273 12.5396 17 11.5489 17 10.5C17 9.4511 16.7273 8.46042 16.2485 7.60132C16.4897 7.53546 16.7399 7.5 17 7.5C18.6539 7.5 20 8.84614 20 10.5Z" fill="#658BD0" stroke="#658BD0"/>
</svg>
