<svg width="28" height="28" viewBox="0 0 28 28" fill="none" xmlns="http://www.w3.org/2000/svg">
<path d="M16.0031 22.9265H5.26634C4.93073 22.9257 4.6091 22.7975 4.37175 22.5701L4.3395 22.5326C4.12418 22.3116 4.00305 22.0213 4 21.7189V5.21413C4.00013 5.05476 4.03303 4.89697 4.09682 4.7498C4.16061 4.60263 4.25404 4.46895 4.37175 4.35643L4.4108 4.3255C4.64122 4.11893 4.9441 4.00277 5.25955 4H19.5967C19.9322 4.00086 20.2538 4.12905 20.4911 4.35656C20.7284 4.58407 20.8621 4.89239 20.863 5.21413V14.8442C20.8631 14.8786 20.8597 14.913 20.8528 14.9467C21.5153 15.188 22.115 15.5647 22.6102 16.0507C23.1055 16.5366 23.4844 17.1202 23.7207 17.7607C23.957 18.4013 24.045 19.0835 23.9785 19.7599C23.912 20.4363 23.6926 21.0908 23.3357 21.6777C22.9788 22.2647 22.4928 22.7701 21.9115 23.1587C21.3303 23.5474 20.6678 23.8101 19.9699 23.9284C19.2721 24.0468 18.5558 24.0181 17.8708 23.8442C17.1857 23.6703 16.5484 23.3555 16.0031 22.9216V22.9265ZM18.4593 17.3652H18.9499C18.995 17.365 19.0397 17.3733 19.0814 17.3898C19.123 17.4063 19.1609 17.4306 19.1927 17.4613C19.2573 17.5236 19.2939 17.6077 19.2945 17.6956V19.4241H20.9224C21.0125 19.4241 21.0988 19.4583 21.1625 19.5194C21.2261 19.5804 21.2619 19.6632 21.2619 19.7496V20.2378C21.2603 20.3255 21.2239 20.4093 21.1601 20.4722L21.1465 20.4836C21.0838 20.5382 21.0021 20.5684 20.9173 20.5682H18.259C18.214 20.5682 18.1708 20.5511 18.139 20.5205C18.1072 20.49 18.0893 20.4486 18.0893 20.4055V17.6712C18.0948 17.5918 18.1304 17.5172 18.1894 17.4613C18.2211 17.4303 18.2589 17.4057 18.3005 17.389C18.3422 17.3722 18.387 17.3636 18.4322 17.3636L18.4593 17.3652ZM19.7749 14.6847V5.21413C19.7708 5.1709 19.7505 5.13055 19.7177 5.10061C19.6849 5.07067 19.6419 5.05318 19.5967 5.05138H5.26634C5.2257 5.05161 5.18629 5.06478 5.1543 5.08881L5.14072 5.10183C5.1074 5.13382 5.08851 5.17707 5.0881 5.22227V21.714C5.08762 21.7526 5.10146 21.7901 5.12714 21.8198L5.14242 21.8328C5.15825 21.8492 5.17742 21.8622 5.19873 21.8712C5.22005 21.8801 5.24306 21.8848 5.26634 21.8849H15.0338C14.5517 21.1797 14.2773 20.3627 14.2397 19.5202C14.202 18.6778 14.4025 17.8413 14.8199 17.0991C15.2372 16.357 15.856 15.7367 16.6108 15.304C17.3656 14.8712 18.2283 14.6421 19.1078 14.6408C19.3293 14.6406 19.5505 14.6553 19.7698 14.6847H19.7749ZM21.873 16.6735C21.2353 16.0601 20.3954 15.6777 19.4965 15.5914C18.5976 15.5052 17.6954 15.7205 16.9435 16.2006C16.1916 16.6808 15.6367 17.396 15.3732 18.2245C15.1098 19.053 15.1541 19.9434 15.4988 20.7441C15.8434 21.5447 16.4669 22.206 17.2631 22.6152C18.0592 23.0245 18.9788 23.1563 19.865 22.9884C20.7512 22.8204 21.5493 22.3629 22.1231 21.694C22.697 21.0251 23.0111 20.186 23.012 19.3199C23.0129 18.8284 22.9123 18.3416 22.7163 17.8874C22.5202 17.4333 22.2325 17.0207 21.8696 16.6735H21.873ZM7.52911 16.0583H9.05686C9.08359 16.0577 9.11019 16.0622 9.13508 16.0715C9.15998 16.0809 9.18266 16.0949 9.20181 16.1128C9.22095 16.1307 9.23616 16.1521 9.24654 16.1757C9.25693 16.1994 9.26227 16.2247 9.26226 16.2504V17.7152C9.26226 17.7661 9.24116 17.8149 9.20359 17.8509C9.16603 17.887 9.11508 17.9072 9.06196 17.9072H7.5342C7.48108 17.9072 7.43013 17.887 7.39257 17.8509C7.355 17.8149 7.3339 17.7661 7.3339 17.7152V16.2504C7.3339 16.2252 7.33908 16.2002 7.34915 16.1769C7.35921 16.1536 7.37397 16.1324 7.39257 16.1146C7.41117 16.0967 7.43325 16.0826 7.45755 16.073C7.48185 16.0633 7.5079 16.0583 7.5342 16.0583H7.52911ZM11.2636 17.5687C11.1211 17.5436 10.9922 17.4714 10.8995 17.3646C10.8067 17.2579 10.7559 17.1233 10.7559 16.9844C10.7559 16.8454 10.8067 16.7109 10.8995 16.6041C10.9922 16.4974 11.1211 16.4252 11.2636 16.4001H12.8898C13.0324 16.4252 13.1612 16.4974 13.254 16.6041C13.3467 16.7109 13.3975 16.8454 13.3975 16.9844C13.3975 17.1233 13.3467 17.2579 13.254 17.3646C13.1612 17.4714 13.0324 17.5436 12.8898 17.5687H11.2636ZM7.52911 7.60497H9.05686C9.08359 7.60432 9.11019 7.6088 9.13508 7.61816C9.15998 7.62752 9.18266 7.64156 9.20181 7.65946C9.22095 7.67736 9.23616 7.69875 9.24654 7.72238C9.25693 7.746 9.26227 7.77138 9.26226 7.79702V9.26179C9.26226 9.31272 9.24116 9.36157 9.20359 9.39759C9.16603 9.4336 9.11508 9.45384 9.06196 9.45384H7.5342C7.48108 9.45384 7.43013 9.4336 7.39257 9.39759C7.355 9.36157 7.3339 9.31272 7.3339 9.26179V7.79702C7.3339 7.74608 7.355 7.69723 7.39257 7.66122C7.43013 7.6252 7.48108 7.60497 7.5342 7.60497H7.52911ZM11.2636 9.11368C11.116 9.10004 10.9798 9.03131 10.8846 8.92231C10.7893 8.81332 10.7425 8.67279 10.7544 8.53103C10.7425 8.3891 10.7892 8.24838 10.8845 8.13912C10.9797 8.02986 11.1158 7.96079 11.2636 7.94675H17.283C17.4308 7.96079 17.5669 8.02986 17.6621 8.13912C17.7573 8.24838 17.8041 8.3891 17.7922 8.53103C17.804 8.67279 17.7573 8.81332 17.662 8.92231C17.5667 9.03131 17.4306 9.10004 17.283 9.11368H11.2636ZM7.11322 12.8049C7.08576 12.7708 7.06564 12.7318 7.05401 12.6902C7.04238 12.6486 7.03948 12.6052 7.04548 12.5625C7.05148 12.5198 7.06626 12.4787 7.08896 12.4415C7.11166 12.4043 7.14184 12.3719 7.17773 12.3459C7.24549 12.2832 7.33522 12.2469 7.4294 12.2442C7.52357 12.2415 7.61542 12.2725 7.68698 12.3313L8.04345 12.6845L8.93464 11.8121C8.96866 11.7836 9.00848 11.7621 9.05159 11.749C9.0947 11.7359 9.14017 11.7315 9.18514 11.7361C9.2301 11.7407 9.27359 11.7541 9.31287 11.7756C9.35214 11.7971 9.38635 11.8262 9.41334 11.8609C9.481 11.924 9.52164 12.0091 9.52729 12.0994C9.53294 12.1897 9.5032 12.2788 9.4439 12.3492L8.25564 13.5113C8.22151 13.5396 8.18167 13.5609 8.1386 13.5738C8.09552 13.5868 8.05013 13.5911 8.00523 13.5865C7.96034 13.582 7.91691 13.5686 7.87764 13.5472C7.83837 13.5259 7.80409 13.497 7.77695 13.4624L7.74979 13.4315C7.73076 13.4192 7.71312 13.405 7.69716 13.3892L7.11322 12.8049ZM11.2551 13.2427C11.1073 13.2287 10.9712 13.1596 10.876 13.0503C10.7808 12.9411 10.734 12.8004 10.7459 12.6584C10.734 12.5165 10.7808 12.3758 10.876 12.2665C10.9712 12.1573 11.1073 12.0882 11.2551 12.0742H17.283C17.4308 12.0882 17.5669 12.1573 17.6621 12.2665C17.7573 12.3758 17.8041 12.5165 17.7922 12.6584C17.8041 12.8004 17.7573 12.9411 17.6621 13.0503C17.5669 13.1596 17.4308 13.2287 17.283 13.2427H11.2551Z" fill="#9CA1A5"/>
</svg>
