<svg width="18" height="18" viewBox="0 0 18 18" fill="none" xmlns="http://www.w3.org/2000/svg">
<path d="M2.60331 18C1.87603 18 1.26033 17.7712 0.756198 17.3137C0.252066 16.8562 0 16.2975 0 15.6375V12.825H3.14876V0L4.63636 1.35L6.12397 0L7.58678 1.35L9.07438 0L10.562 1.35L12.0496 0L13.5372 1.35L15.0248 0L16.5124 1.35L18 0V15.6375C18 16.2975 17.7479 16.8562 17.2438 17.3137C16.7397 17.7712 16.124 18 15.3967 18H2.60331ZM15.3967 16.65C15.7273 16.65 15.9959 16.5562 16.2025 16.3687C16.4091 16.1812 16.5124 15.9375 16.5124 15.6375V2.25H4.63636V12.825H14.281V15.6375C14.281 15.9375 14.3843 16.1812 14.5909 16.3687C14.7975 16.5562 15.0661 16.65 15.3967 16.65ZM5.95041 5.805V4.455H11.9008V5.805H5.95041ZM5.95041 8.82V7.47H11.9008V8.82H5.95041ZM14.2066 5.805C14.0083 5.805 13.8347 5.7375 13.6859 5.6025C13.5372 5.4675 13.4628 5.31 13.4628 5.13C13.4628 4.95 13.5372 4.7925 13.6859 4.6575C13.8347 4.5225 14.0083 4.455 14.2066 4.455C14.405 4.455 14.5785 4.5225 14.7273 4.6575C14.876 4.7925 14.9504 4.95 14.9504 5.13C14.9504 5.31 14.876 5.4675 14.7273 5.6025C14.5785 5.7375 14.405 5.805 14.2066 5.805ZM14.2066 8.7075C14.0083 8.7075 13.8347 8.64 13.6859 8.505C13.5372 8.37 13.4628 8.2125 13.4628 8.0325C13.4628 7.8525 13.5372 7.695 13.6859 7.56C13.8347 7.425 14.0083 7.3575 14.2066 7.3575C14.405 7.3575 14.5785 7.425 14.7273 7.56C14.876 7.695 14.9504 7.8525 14.9504 8.0325C14.9504 8.2125 14.876 8.37 14.7273 8.505C14.5785 8.64 14.405 8.7075 14.2066 8.7075ZM2.57851 16.65H12.7934V14.175H1.4876V15.6375C1.4876 15.9375 1.59091 16.1812 1.79752 16.3687C2.00413 16.5562 2.26446 16.65 2.57851 16.65ZM1.4876 16.65V14.175V16.65Z" fill="#9CA1A5"/>
</svg>
