<svg width="16" height="14" viewBox="0 0 16 14" fill="none" xmlns="http://www.w3.org/2000/svg">
<path fill-rule="evenodd" clip-rule="evenodd" d="M15.5 6.99996C15.5 7.2486 15.4012 7.48706 15.2254 7.66288C15.0496 7.83869 14.8111 7.93746 14.5625 7.93746H3.70062L7.72625 11.9612C7.81341 12.0484 7.88256 12.1519 7.92973 12.2657C7.9769 12.3796 8.00118 12.5017 8.00118 12.625C8.00118 12.7482 7.9769 12.8703 7.92973 12.9842C7.88256 13.0981 7.81341 13.2016 7.72625 13.2887C7.63908 13.3759 7.5356 13.445 7.42172 13.4922C7.30783 13.5394 7.18577 13.5636 7.0625 13.5636C6.93923 13.5636 6.81716 13.5394 6.70328 13.4922C6.58939 13.445 6.48591 13.3759 6.39875 13.2887L0.773747 7.66371C0.686441 7.57663 0.617173 7.47317 0.569911 7.35928C0.522649 7.24538 0.498322 7.12328 0.498322 6.99996C0.498322 6.87665 0.522649 6.75455 0.569911 6.64065C0.617173 6.52675 0.686441 6.4233 0.773747 6.33621L6.39875 0.711214C6.57479 0.535176 6.81354 0.436279 7.0625 0.436279C7.31145 0.436279 7.55021 0.535176 7.72625 0.711214C7.90229 0.887251 8.00118 1.12601 8.00118 1.37496C8.00118 1.62392 7.90229 1.86268 7.72625 2.03871L3.70062 6.06246H14.5625C14.8111 6.06246 15.0496 6.16124 15.2254 6.33705C15.4012 6.51287 15.5 6.75132 15.5 6.99996Z" fill="#3A78F1"/>
</svg>
