<svg width="19" height="19" viewBox="0 0 19 19" fill="none" xmlns="http://www.w3.org/2000/svg">
<path d="M2.5 18.5C1.95 18.5 1.479 18.3043 1.087 17.913C0.695667 17.521 0.5 17.05 0.5 16.5V2.5C0.5 1.95 0.695667 1.479 1.087 1.087C1.479 0.695667 1.95 0.5 2.5 0.5H16.5C17.05 0.5 17.521 0.695667 17.913 1.087C18.3043 1.479 18.5 1.95 18.5 2.5V16.5C18.5 17.05 18.3043 17.521 17.913 17.913C17.521 18.3043 17.05 18.5 16.5 18.5H12.5V16.5H16.5V4.5H2.5V16.5H6.5V18.5H2.5ZM8.5 18.5V12.35L6.9 13.95L5.5 12.5L9.5 8.5L13.5 12.5L12.1 13.95L10.5 12.35V18.5H8.5Z" fill="#02032B"/>
</svg>
