<svg width="18" height="18" viewBox="0 0 18 18" fill="none" xmlns="http://www.w3.org/2000/svg">
<path d="M4.716 0H3.006C1.035 0 0 1.035 0 2.997V4.707C0 6.669 1.035 7.704 2.997 7.704H4.707C6.669 7.704 7.704 6.669 7.704 4.707V2.997C7.713 1.035 6.678 0 4.716 0Z" fill="white"/>
<path d="M15.003 0H13.293C11.331 0 10.296 1.035 10.296 2.997V4.707C10.296 6.669 11.331 7.704 13.293 7.704H15.003C16.965 7.704 18 6.669 18 4.707V2.997C18 1.035 16.965 0 15.003 0Z" fill="white"/>
<path d="M15.003 10.287H13.293C11.331 10.287 10.296 11.322 10.296 13.284V14.994C10.296 16.956 11.331 17.991 13.293 17.991H15.003C16.965 17.991 18 16.956 18 14.994V13.284C18 11.322 16.965 10.287 15.003 10.287V10.287Z" fill="white"/>
<path d="M4.716 10.287H3.006C1.035 10.287 0 11.322 0 13.284V14.994C0 16.965 1.035 18 2.997 18H4.707C6.669 18 7.704 16.965 7.704 15.003V13.293C7.713 11.322 6.678 10.287 4.716 10.287V10.287Z" fill="white"/>
</svg>
