<svg width="30" height="30" viewBox="0 0 30 30" fill="none" xmlns="http://www.w3.org/2000/svg">
<g clip-path="url(#clip0_220_3480)">
<path fill-rule="evenodd" clip-rule="evenodd" d="M23.4433 19.161C27.0638 19.161 30 21.5883 30 24.5805C30 27.5728 27.0638 30 23.4433 30C19.822 30 16.8858 27.5728 16.8858 24.5805C16.8858 21.5883 19.822 19.161 23.4433 19.161ZM27.9014 1.3622C27.9014 0.613106 27.1582 0 26.2525 0H1.64894C0.741844 0 0 0.613692 0 1.3622V26.5834C0 27.3325 0.741844 27.9462 1.64894 27.9462H16.061C15.8539 27.6378 15.6752 27.3149 15.5255 26.9802H1.37447C1.28369 26.9802 1.20142 26.914 1.20142 26.8372V1.235C1.20142 1.15763 1.28369 1.09199 1.37447 1.09199H26.5716C26.6638 1.09199 26.7447 1.16174 26.7447 1.235V18.1699C27.1468 18.3123 27.5333 18.4799 27.9014 18.6698V1.3622ZM4.22553 3.36681H5.14043V6.53081H4.22553V3.36681ZM5.90922 3.36681H6.76099L7.86738 5.1141V3.36681H8.72979V6.53081H7.86738L6.76738 4.79348V6.53081H5.90922V3.36681ZM9.15603 3.36681H10.1085L10.7738 5.64398L11.4291 3.36681H12.3546L11.2589 6.53081H10.2709L9.15603 3.36681ZM12.9064 3.74546C13.4433 3.17104 14.6213 3.16166 15.1638 3.73784C15.6355 4.2384 15.6716 5.25712 15.3887 5.83389C15.2723 6.0701 15.1035 6.25474 14.8844 6.38603C14.4504 6.64745 13.6865 6.64745 13.2376 6.41358C13.0191 6.29987 12.8418 6.11992 12.7064 5.87374C12.3851 5.28995 12.4255 4.26068 12.9064 3.74546ZM13.5809 5.64105C13.7993 5.91595 14.2702 5.92474 14.4901 5.64573C14.7078 5.36849 14.7135 4.54085 14.483 4.25833C14.2567 3.98167 13.805 3.98343 13.5816 4.26126C13.3553 4.54496 13.3546 5.35735 13.5809 5.64105ZM16.1986 3.36681H17.1142V6.53081H16.1986V3.36681ZM19.8411 5.23661L20.6404 5.49451C20.5872 5.73424 20.5021 5.93588 20.3865 6.09648C20.2709 6.25708 20.1277 6.379 19.9567 6.46106C19.7858 6.54195 19.5674 6.58415 19.3028 6.58415C18.9816 6.58415 18.7191 6.53433 18.5156 6.4341C18.3121 6.33445 18.1362 6.15802 17.9894 5.90715C17.8418 5.65629 17.7674 5.33332 17.7674 4.94178C17.7674 4.41894 17.8972 4.01626 18.1574 3.73549C18.417 3.45473 18.7851 3.31406 19.2603 3.31406C19.6326 3.31406 19.9255 3.39494 20.1383 3.55555C20.3496 3.71674 20.5085 3.96409 20.6121 4.29878L19.8085 4.48986C19.7801 4.39373 19.7504 4.32339 19.7199 4.27943C19.6681 4.20558 19.6057 4.14814 19.5319 4.10828C19.4585 4.06826 19.3724 4.04705 19.2844 4.04732C19.0766 4.04732 18.9184 4.13759 18.8078 4.3146C18.7255 4.44648 18.6823 4.65398 18.6823 4.93591C18.6823 5.28643 18.7319 5.52616 18.8312 5.6557C18.9312 5.78524 19.0709 5.85088 19.2511 5.85088C19.4255 5.85088 19.5574 5.79755 19.6468 5.69263C19.7355 5.58829 19.8007 5.4359 19.8411 5.23661ZM21.1901 3.36681H23.6305V4.04322H22.1057V4.54672H23.5191V5.19206H22.1057V5.81513H23.6759V6.53081H21.1901V3.36681ZM7.09716 11.363C6.80284 11.363 6.56454 11.1654 6.56454 10.9222C6.56454 10.6789 6.80284 10.4814 7.09716 10.4814H17.7135C18.0078 10.4814 18.2468 10.6789 18.2468 10.9222C18.2468 11.1654 18.0078 11.363 17.7135 11.363H7.09716ZM7.09716 18.5825C6.80284 18.5825 6.56454 18.3856 6.56454 18.1423C6.56445 18.0845 6.57815 18.0272 6.60488 17.9737C6.6316 17.9202 6.67082 17.8716 6.72029 17.8307C6.76976 17.7897 6.82851 17.7573 6.89317 17.7351C6.95784 17.7129 7.02716 17.7015 7.09716 17.7015H20.0979C20.3404 17.7015 20.5447 17.8352 20.6092 18.0181C20.1014 18.1681 19.6156 18.358 19.1574 18.5825H7.09716ZM7.09716 15.9091C7.02716 15.9091 6.95784 15.8977 6.89317 15.8755C6.82851 15.8534 6.76976 15.8209 6.72029 15.78C6.67082 15.739 6.6316 15.6904 6.60488 15.637C6.57815 15.5835 6.56445 15.5262 6.56454 15.4683C6.56454 15.2251 6.80284 15.0281 7.09716 15.0281H17.7135C18.0078 15.0281 18.2468 15.2251 18.2468 15.4683C18.2468 15.7122 18.0078 15.9091 17.7135 15.9091H7.09716ZM22.744 13.6788H5.15674V22.4253H15.4227C15.3106 22.7113 15.2199 23.0055 15.1525 23.3068H4.6234C4.32908 23.3068 4.09078 23.1093 4.09078 22.866V8.7013C4.09078 8.45805 4.32908 8.26052 4.6234 8.26052H23.2773C23.5716 8.26052 23.8106 8.45805 23.8106 8.7013V17.6183C23.455 17.6056 23.0987 17.6115 22.744 17.6359V13.6788ZM5.15674 12.7973H22.744V9.14208H5.15674V12.7973ZM21.5539 23.733L22.6631 24.5987L25.1787 22.454C25.3965 22.2723 25.5326 22.1257 25.8 22.3543L26.6695 23.0894C26.9546 23.3227 26.9404 23.4598 26.6709 23.6773L23.1596 26.5664C22.5915 27.0265 22.6908 27.0546 22.1149 26.5828L20.0901 24.9187C19.9702 24.812 19.983 24.7036 20.1149 24.5958L21.1234 23.7312C21.2766 23.5981 21.3979 23.6099 21.5539 23.733Z" fill="#F3AC45"/>
</g>
<defs>
<clipPath id="clip0_220_3480">
<rect width="30" height="30" fill="white"/>
</clipPath>
</defs>
</svg>
