<svg width="21" height="21" viewBox="0 0 21 21" fill="none" xmlns="http://www.w3.org/2000/svg">
<path fill-rule="evenodd" clip-rule="evenodd" d="M4.18009 2.21948H6.26798C6.38009 1.25014 7.12345 0.5 8.0254 0.5C8.9215 0.5 9.66095 1.23945 9.78048 2.19933L11.8945 2.21948C12.0024 2.21948 12.0891 2.31078 12.0891 2.42511V4.68745C12.0892 4.7144 12.0842 4.7411 12.0745 4.76602C12.0647 4.79094 12.0504 4.81359 12.0324 4.83266C12.0143 4.85173 11.9928 4.86685 11.9691 4.87715C11.9455 4.88745 11.9201 4.89273 11.8945 4.89267H4.18243C4.07618 4.89267 3.98712 4.80137 3.98712 4.68745V2.42511C3.98671 2.39819 3.9914 2.37146 4.00092 2.34648C4.01044 2.32149 4.0246 2.29876 4.04257 2.27961C4.06054 2.26046 4.08196 2.24528 4.10557 2.23495C4.12919 2.22463 4.15452 2.21937 4.18009 2.21948ZM17.757 3.28793H19.8277C20.1 3.28793 20.3242 3.52317 20.3242 3.81065L20.325 5.01646L17.2602 5.01687L17.2606 3.81065C17.2606 3.524 17.4844 3.28793 17.757 3.28793ZM20.3207 17.455C20.0348 18.0259 19.7484 18.5979 19.4621 19.1696C18.7895 20.5132 18.9942 20.7196 18.3219 19.4525L17.2637 17.455L17.2606 17.4554V5.62759L20.3242 5.62677V17.4554L20.3207 17.455ZM17.7863 17.4542L19.7981 17.455C19.6098 17.8297 19.4215 18.2052 19.2336 18.5798C18.7902 19.462 18.9254 19.5981 18.4836 18.7661L17.7863 17.4542ZM5.99454 8.99417C5.69884 8.99417 5.459 8.74166 5.459 8.42992C5.459 8.1186 5.69884 7.86608 5.99454 7.86608H11.9149C12.2106 7.86608 12.4508 8.1186 12.4508 8.42992C12.4508 8.74166 12.2106 8.99417 11.9149 8.99417H5.99454ZM5.99454 12.2217C5.69884 12.2217 5.459 11.9688 5.459 11.6575C5.459 11.3462 5.69884 11.0932 5.99454 11.0932H11.9149C12.2106 11.0932 12.4508 11.3462 12.4508 11.6575C12.4508 11.9688 12.2106 12.2217 11.9149 12.2217H5.99454ZM4.21056 14.2558C4.54142 14.2558 4.809 14.538 4.809 14.8859C4.809 15.2342 4.54142 15.5163 4.21056 15.5163C3.8797 15.5163 3.61212 15.2342 3.61212 14.8859C3.61212 14.538 3.8797 14.2558 4.21056 14.2558ZM5.99454 15.4501C5.69884 15.4501 5.459 15.1972 5.459 14.8859C5.459 14.5746 5.69884 14.3216 5.99454 14.3216H11.2207C11.5164 14.3216 11.7567 14.5746 11.7567 14.8859C11.7567 15.1972 11.5164 15.4501 11.2207 15.4501H5.99454ZM4.21056 11.0274C4.54142 11.0274 4.809 11.3096 4.809 11.6579C4.809 12.0058 4.54142 12.288 4.21056 12.288C3.8797 12.288 3.61212 12.0058 3.61212 11.6579C3.61212 11.3096 3.8797 11.0274 4.21056 11.0274ZM4.21056 7.79987C4.54142 7.79987 4.809 8.08158 4.809 8.42992C4.809 8.77826 4.54142 9.05997 4.21056 9.05997C3.8797 9.05997 3.61212 8.77826 3.61212 8.42992C3.61212 8.08158 3.8797 7.79987 4.21056 7.79987ZM2.05431 3.08724H3.0465V4.15076H2.05431C1.85665 4.15076 1.67579 4.23589 1.54572 4.37243C1.41642 4.50938 1.33517 4.69938 1.33517 4.90748V18.6785C1.33517 18.8862 1.41681 19.0766 1.54611 19.214C1.67657 19.3505 1.85743 19.4361 2.05431 19.4361H14.0211C14.2082 19.4361 14.3797 19.3596 14.507 19.2354L14.5281 19.2123C14.659 19.0746 14.7406 18.885 14.7406 18.6785V4.90748C14.7406 4.69979 14.6602 4.5102 14.5305 4.37366C14.4004 4.23671 14.2192 4.15076 14.0211 4.15076H13.0293V3.08724H14.0211C14.4961 3.08724 14.9277 3.29287 15.2406 3.62147C15.5555 3.95253 15.7512 4.40862 15.7512 4.90748V18.6785C15.7512 19.179 15.5559 19.6347 15.2426 19.9645L15.2078 19.9979C14.8969 20.3084 14.4777 20.5 14.0211 20.5H2.05431C1.58087 20.5 1.14845 20.2944 0.834778 19.965C0.520325 19.6331 0.325012 19.1782 0.325012 18.6785V4.90748C0.325012 4.40821 0.519934 3.95335 0.832434 3.62352C1.14767 3.29246 1.58009 3.08724 2.05431 3.08724ZM8.00509 1.37969C8.51447 1.37969 8.92775 1.8148 8.92775 2.35108C8.92775 2.88819 8.51447 3.3233 8.00509 3.3233C7.49532 3.3233 7.08204 2.88819 7.08204 2.35108C7.08204 1.8148 7.49532 1.37969 8.00509 1.37969Z" fill="#1DA77D"/>
</svg>
