<svg width="21" height="21" viewBox="0 0 21 21" fill="none" xmlns="http://www.w3.org/2000/svg">
<path fill-rule="evenodd" clip-rule="evenodd" d="M3.48092 12.6756V20.1573C3.48007 20.2479 3.44836 20.3346 3.39264 20.3985C3.33692 20.4625 3.26165 20.4986 3.18307 20.4991H0.622849C0.544135 20.4991 0.46862 20.4631 0.412809 20.3991C0.356998 20.335 0.325427 20.2481 0.324997 20.1573V12.6756H3.48092ZM0.324997 10.2324L7.0942 3.39859C8.59323 5.08873 10.0467 7.14131 11.5294 8.83146L16.938 2.56479L15.1964 0.551644L20.325 0.499062V6.46714L18.6534 4.5385C17.4539 5.94132 14.617 9.03052 13.4174 10.4164C11.8989 12.1667 11.1746 12.1986 9.65768 10.4484L7.0942 7.15822L4.08965 10.2324H0.324997ZM18.9399 7.76479V20.1592C18.9391 20.2495 18.9076 20.3359 18.8522 20.3998C18.7968 20.4636 18.722 20.5 18.6437 20.5009H16.0818C16.0035 20.4995 15.9289 20.4627 15.8738 20.3984C15.8187 20.3342 15.7877 20.2476 15.7872 20.1573V11.2577C16.2755 10.7113 16.8452 10.0765 17.4262 9.43052L18.6388 8.08404C18.7354 7.97157 18.837 7.86501 18.9432 7.76479H18.9399ZM13.7869 13.3329V20.1573C13.7861 20.2479 13.7544 20.3346 13.6986 20.3985C13.6429 20.4625 13.5676 20.4986 13.4891 20.4991H10.9288C10.8503 20.4986 10.775 20.4625 10.7193 20.3985C10.6635 20.3346 10.6318 20.2479 10.631 20.1573V14.0615C10.9362 14.147 11.2496 14.1867 11.5636 14.1798C12.3623 14.1664 13.1383 13.8708 13.7869 13.3329ZM8.63392 12.7695V20.1479C8.63306 20.2386 8.60136 20.3252 8.54564 20.3891C8.48992 20.4531 8.41465 20.4892 8.33607 20.4897H5.77422C5.69578 20.4892 5.62069 20.453 5.56523 20.389C5.50977 20.325 5.47842 20.2384 5.47799 20.1479V12.1423C5.53008 12.0972 5.58053 12.0502 5.62936 12.0014L6.90866 10.6869L7.94056 12.0014L8.02031 12.0972C8.22864 12.3388 8.43318 12.5592 8.63392 12.7582V12.7695Z" fill="#F69B2B"/>
</svg>
