<svg width="24" height="24" viewBox="0 0 24 24" fill="none" xmlns="http://www.w3.org/2000/svg">
<path d="M7.03125 10.8379H16.9875V11.9629H7.03125V10.8379ZM7.03125 15.7879H13.125V16.9129H7.03125V15.7879Z" fill="#6E82BE"/>
<path d="M19.1813 23.0063H4.81875C4.51875 23.0063 4.2375 22.95 3.95625 22.8375C3.69375 22.725 3.45 22.575 3.2625 22.3688C3.05625 22.1625 2.90625 21.9375 2.79375 21.675C2.68125 21.3938 2.625 21.1125 2.625 20.8125V5.86875C2.625 5.56875 2.68125 5.2875 2.79375 5.00625C2.90625 4.74375 3.05625 4.5 3.2625 4.3125C3.46875 4.10625 3.69375 3.95625 3.95625 3.84375C4.2375 3.73125 4.51875 3.675 4.81875 3.675H6.99375V4.78125H4.81875C4.21875 4.78125 3.7125 5.26875 3.7125 5.8875V20.8313C3.7125 21.4313 4.2 21.9375 4.81875 21.9375H19.1625C19.7625 21.9375 20.2687 21.45 20.2687 20.8313V5.86875C20.2687 5.26875 19.7812 4.7625 19.1625 4.7625H17.0062V3.65625H19.1813C19.4813 3.65625 19.7625 3.7125 20.0438 3.825C20.3062 3.9375 20.55 4.0875 20.7375 4.29375C20.9438 4.5 21.0938 4.725 21.2062 4.9875C21.3188 5.26875 21.375 5.55 21.375 5.85V20.7938C21.375 21.0938 21.3188 21.375 21.2062 21.6563C21.0938 21.9188 20.9438 22.1625 20.7375 22.35C20.5312 22.5563 20.3062 22.7063 20.0438 22.8188C19.7625 22.95 19.4813 23.0063 19.1813 23.0063Z" fill="#6E82BE"/>
<path d="M17.5125 6.97461H6.48749V3.37461C6.48749 2.60586 7.10624 1.98711 7.87499 1.98711H9.29999C9.80624 0.974609 10.8562 0.318359 12.0187 0.318359C13.1812 0.318359 14.2312 0.974609 14.7375 1.98711H16.1625C16.9312 1.98711 17.55 2.60586 17.55 3.37461L17.5125 6.97461ZM7.59374 5.86836H16.425V3.37461C16.425 3.22461 16.2937 3.09336 16.1437 3.09336H13.95L13.8187 2.71836C13.5562 1.94961 12.825 1.42461 12 1.42461C11.175 1.42461 10.4437 1.94961 10.1812 2.71836L10.05 3.09336H7.85624C7.70624 3.09336 7.57499 3.22461 7.57499 3.37461V5.86836H7.59374Z" fill="#6E82BE"/>
</svg>
