<svg width="30" height="30" viewBox="0 0 30 30" fill="none" xmlns="http://www.w3.org/2000/svg">
<path d="M8.78906 13.5469H21.2344V14.9531H8.78906V13.5469ZM8.78906 19.7344H16.4062V21.1406H8.78906V19.7344Z" fill="#9CA1A5"/>
<path d="M23.9766 28.7578H6.02344C5.64844 28.7578 5.29688 28.6875 4.94531 28.5469C4.61719 28.4062 4.3125 28.2188 4.07812 27.9609C3.82031 27.7031 3.63281 27.4219 3.49219 27.0938C3.35156 26.7422 3.28125 26.3906 3.28125 26.0156V7.33594C3.28125 6.96094 3.35156 6.60938 3.49219 6.25781C3.63281 5.92969 3.82031 5.625 4.07812 5.39062C4.33594 5.13281 4.61719 4.94531 4.94531 4.80469C5.29688 4.66406 5.64844 4.59375 6.02344 4.59375H8.74219V5.97656H6.02344C5.27344 5.97656 4.64062 6.58594 4.64062 7.35938V26.0391C4.64062 26.7891 5.25 27.4219 6.02344 27.4219H23.9531C24.7031 27.4219 25.3359 26.8125 25.3359 26.0391V7.33594C25.3359 6.58594 24.7266 5.95312 23.9531 5.95312H21.2578V4.57031H23.9766C24.3516 4.57031 24.7031 4.64062 25.0547 4.78125C25.3828 4.92187 25.6875 5.10937 25.9219 5.36719C26.1797 5.625 26.3672 5.90625 26.5078 6.23438C26.6484 6.58594 26.7188 6.9375 26.7188 7.3125V25.9922C26.7188 26.3672 26.6484 26.7188 26.5078 27.0703C26.3672 27.3984 26.1797 27.7031 25.9219 27.9375C25.6641 28.1953 25.3828 28.3828 25.0547 28.5234C24.7031 28.6875 24.3516 28.7578 23.9766 28.7578Z" fill="#9CA1A5"/>
<path d="M21.8906 8.71875H8.10938V4.21875C8.10938 3.25781 8.88281 2.48438 9.84375 2.48438H11.625C12.2578 1.21875 13.5703 0.398438 15.0234 0.398438C16.4766 0.398438 17.7891 1.21875 18.4219 2.48438H20.2031C21.1641 2.48438 21.9375 3.25781 21.9375 4.21875L21.8906 8.71875ZM9.49219 7.33594H20.5312V4.21875C20.5312 4.03125 20.3672 3.86719 20.1797 3.86719H17.4375L17.2734 3.39844C16.9453 2.4375 16.0313 1.78125 15 1.78125C13.9688 1.78125 13.0547 2.4375 12.7266 3.39844L12.5625 3.86719H9.82031C9.63281 3.86719 9.46875 4.03125 9.46875 4.21875V7.33594H9.49219Z" fill="#9CA1A5"/>
</svg>
