<svg width="21" height="21" viewBox="0 0 21 21" fill="none" xmlns="http://www.w3.org/2000/svg">
<path fill-rule="evenodd" clip-rule="evenodd" d="M0.324593 3.1636C0.324593 3.01133 0.349978 2.86055 0.399301 2.71987C0.448623 2.5792 0.520916 2.45137 0.612051 2.3437C0.703187 2.23603 0.811381 2.15063 0.930455 2.09235C1.04953 2.03408 1.17715 2.00409 1.30604 2.00409C1.43492 2.00409 1.56255 2.03408 1.68162 2.09235C1.8007 2.15063 1.90889 2.23603 2.00002 2.3437C2.09116 2.45137 2.16345 2.5792 2.21278 2.71987C2.2621 2.86055 2.28748 3.01133 2.28748 3.1636V18.1775H19.3431C19.6037 18.1775 19.8535 18.2998 20.0377 18.5174C20.2219 18.7351 20.3254 19.0302 20.3254 19.338C20.3254 19.6458 20.2219 19.9409 20.0377 20.1586C19.8535 20.3762 19.6037 20.4985 19.3431 20.4985H0.324593V3.1636ZM16.9099 1.87334L16.4216 1.12725C16.3848 1.07865 16.3591 1.0198 16.3468 0.956227C16.3346 0.892654 16.3362 0.826447 16.3516 0.763828C16.4379 0.461934 16.7308 0.498469 16.9408 0.508083C17.5349 0.558078 18.8484 0.669606 19.1543 0.683066C19.2047 0.681245 19.2548 0.693264 19.3005 0.718177C19.3463 0.74309 19.3865 0.780217 19.4181 0.826633C19.4497 0.87305 19.4717 0.927488 19.4824 0.985661C19.4931 1.04383 19.4922 1.10415 19.4799 1.16187C19.418 1.52722 19.2211 3.19052 19.1185 3.85392C19.0827 4.08466 19.0241 4.38656 18.7751 4.40771C18.7203 4.40994 18.6659 4.39578 18.617 4.36653C18.568 4.33729 18.5261 4.29391 18.4952 4.24042L18.0069 3.49433L17.8067 3.19436L15.362 5.38454V5.43453C15.362 5.89658 15.2067 6.3397 14.9301 6.66641C14.6536 6.99313 14.2785 7.17667 13.8874 7.17667C13.4963 7.17667 13.1213 6.99313 12.8447 6.66641C12.5682 6.3397 12.4128 5.89658 12.4128 5.43453C12.4128 5.39607 12.4128 5.35762 12.4128 5.31916L10.7055 3.85968C10.441 4.07579 10.124 4.18374 9.80282 4.16708C9.48162 4.15041 9.17384 4.01004 8.92648 3.76738L7.26632 5.1634C7.30163 5.30987 7.32077 5.4611 7.32329 5.61336C7.32169 5.98574 7.21847 6.34757 7.02895 6.64512C6.83944 6.94267 6.57374 7.16007 6.27132 7.26502C5.9689 7.36997 5.6459 7.35688 5.35028 7.2277C5.05466 7.09851 4.80219 6.86011 4.63038 6.54792C4.45857 6.23573 4.37657 5.86638 4.39657 5.49475C4.41658 5.12313 4.53751 4.76903 4.74141 4.48506C4.9453 4.20109 5.22129 4.00239 5.52838 3.91848C5.83547 3.83457 6.15728 3.86992 6.44601 4.01928L8.39914 2.37713C8.4336 1.94121 8.60574 1.5366 8.88128 1.24382C9.15682 0.951049 9.51557 0.791581 9.88613 0.797156C10.2567 0.802732 10.6119 0.972941 10.881 1.27391C11.1502 1.57488 11.3135 1.98454 11.3386 2.42136C11.3386 2.45982 11.3386 2.49828 11.3386 2.53481L13.0492 3.99621C13.3021 3.78856 13.6037 3.67968 13.9117 3.68485C14.2196 3.69003 14.5185 3.80899 14.7663 4.02505L17.0043 2.01563L16.9099 1.87334ZM16.8952 6.36906H18.9281C18.9844 6.36906 19.0384 6.39533 19.0783 6.44216C19.1182 6.48898 19.1409 6.55256 19.1413 6.61903V15.9528C19.1409 16.0194 19.1183 16.0832 19.0784 16.1303C19.0385 16.1774 18.9845 16.2041 18.9281 16.2046H16.8952C16.8672 16.2046 16.8395 16.1981 16.8136 16.1855C16.7878 16.1728 16.7643 16.1543 16.7445 16.1309C16.7247 16.1075 16.709 16.0797 16.6982 16.0491C16.6875 16.0186 16.682 15.9858 16.682 15.9528V6.61903C16.6824 6.55256 16.7051 6.48898 16.745 6.44216C16.785 6.39533 16.839 6.36906 16.8952 6.36906ZM12.8718 9.56683H14.9047C14.9327 9.56683 14.9604 9.57334 14.9863 9.586C15.0121 9.59866 15.0356 9.61722 15.0554 9.64061C15.0752 9.664 15.0909 9.69177 15.1017 9.72233C15.1124 9.75289 15.1179 9.78565 15.1179 9.81873V15.9528C15.1175 16.0194 15.0949 16.0832 15.055 16.1303C15.0151 16.1774 14.9611 16.2041 14.9047 16.2046H12.8718C12.8438 16.2046 12.8161 16.1981 12.7902 16.1855C12.7643 16.1728 12.7408 16.1543 12.721 16.1309C12.7012 16.1075 12.6855 16.0797 12.6748 16.0491C12.6641 16.0186 12.6586 15.9858 12.6586 15.9528V9.81873C12.6586 9.75192 12.681 9.68785 12.721 9.64061C12.761 9.59337 12.8152 9.56683 12.8718 9.56683ZM8.84673 6.36906H10.8812C10.9374 6.36906 10.9912 6.39539 11.0308 6.44227C11.0705 6.48915 11.0928 6.55274 11.0928 6.61903V15.9528C11.0924 16.0191 11.07 16.0826 11.0305 16.1296C10.9909 16.1767 10.9374 16.2036 10.8812 16.2046H8.84673C8.79031 16.2041 8.73633 16.1774 8.69643 16.1303C8.65654 16.0832 8.63394 16.0194 8.63351 15.9528V6.61903C8.63394 6.55256 8.65659 6.48898 8.69653 6.44216C8.73647 6.39533 8.79046 6.36906 8.84673 6.36906ZM4.82329 10.0822H6.85617C6.88417 10.0822 6.91189 10.0887 6.93776 10.1013C6.96363 10.114 6.98714 10.1326 7.00693 10.1559C7.02673 10.1793 7.04244 10.2071 7.05315 10.2377C7.06387 10.2682 7.06938 10.301 7.06938 10.3341V15.9528C7.06896 16.0194 7.04636 16.0832 7.00646 16.1303C6.96657 16.1774 6.91259 16.2041 6.85617 16.2046H4.82329C4.79529 16.2046 4.76757 16.1981 4.7417 16.1855C4.71583 16.1728 4.69232 16.1543 4.67252 16.1309C4.65273 16.1075 4.63702 16.0797 4.6263 16.0491C4.61559 16.0186 4.61007 15.9858 4.61007 15.9528V10.3341C4.61007 10.2673 4.63254 10.2032 4.67252 10.1559C4.71251 10.1087 4.76674 10.0822 4.82329 10.0822Z" fill="#1DA77D"/>
</svg>
