<svg width="16" height="14" viewBox="0 0 16 14" fill="none" xmlns="http://www.w3.org/2000/svg">
<path fill-rule="evenodd" clip-rule="evenodd" d="M0.500002 7.00004C0.500002 6.7514 0.598773 6.51294 0.774589 6.33712C0.950404 6.16131 1.18886 6.06254 1.4375 6.06254L12.2994 6.06254L8.27375 2.03879C8.18659 1.95162 8.11744 1.84814 8.07027 1.73425C8.0231 1.62037 7.99882 1.49831 7.99882 1.37504C7.99882 1.25177 8.0231 1.1297 8.07027 1.01582C8.11744 0.90193 8.18659 0.79845 8.27375 0.711285C8.36092 0.62412 8.4644 0.554977 8.57828 0.507804C8.69217 0.46063 8.81423 0.436352 8.9375 0.436352C9.06077 0.436352 9.18284 0.46063 9.29672 0.507804C9.41061 0.554977 9.51409 0.62412 9.60125 0.711285L15.2263 6.33629C15.3136 6.42337 15.3828 6.52683 15.4301 6.64072C15.4774 6.75462 15.5017 6.87672 15.5017 7.00004C15.5017 7.12335 15.4774 7.24545 15.4301 7.35935C15.3828 7.47325 15.3136 7.5767 15.2263 7.66379L9.60125 13.2888C9.42521 13.4648 9.18646 13.5637 8.9375 13.5637C8.68855 13.5637 8.44979 13.4648 8.27375 13.2888C8.09771 13.1127 7.99882 12.874 7.99882 12.625C7.99882 12.3761 8.09771 12.1373 8.27375 11.9613L12.2994 7.93754L1.4375 7.93754C1.18886 7.93754 0.950404 7.83876 0.774589 7.66295C0.598773 7.48713 0.500002 7.24868 0.500002 7.00004Z" fill="#3A78F1"/>
</svg>
