<svg width="18" height="18" viewBox="0 0 18 18" fill="none" xmlns="http://www.w3.org/2000/svg">
<path d="M14.7273 11.25V2.25C14.7273 1.0125 13.9909 0 13.0909 0H1.63636C0.736364 0 0 1.0125 0 2.25V11.25C0 12.4875 0.736364 13.5 1.63636 13.5H13.0909C13.9909 13.5 14.7273 12.4875 14.7273 11.25ZM7.36364 10.125C6.00545 10.125 4.90909 8.6175 4.90909 6.75C4.90909 4.8825 6.00545 3.375 7.36364 3.375C8.72182 3.375 9.81818 4.8825 9.81818 6.75C9.81818 8.6175 8.72182 10.125 7.36364 10.125ZM18 3.375V15.75C18 16.9875 17.2636 18 16.3636 18H2.45455V15.75H16.3636V3.375H18Z" fill="#A0AEC0"/>
</svg>
