<svg width="18" height="14" viewBox="0 0 18 14" fill="none" xmlns="http://www.w3.org/2000/svg">
<path d="M14.7273 8.625V2.125C14.7273 1.23125 13.9909 0.5 13.0909 0.5H1.63636C0.736364 0.5 0 1.23125 0 2.125V8.625C0 9.51875 0.736364 10.25 1.63636 10.25H13.0909C13.9909 10.25 14.7273 9.51875 14.7273 8.625ZM7.36364 7.8125C6.00545 7.8125 4.90909 6.72375 4.90909 5.375C4.90909 4.02625 6.00545 2.9375 7.36364 2.9375C8.72182 2.9375 9.81818 4.02625 9.81818 5.375C9.81818 6.72375 8.72182 7.8125 7.36364 7.8125ZM18 2.9375V11.875C18 12.7688 17.2636 13.5 16.3636 13.5H2.45455V11.875H16.3636V2.9375H18Z" fill="#9CA1A5"/>
</svg>
