<svg width="21" height="21" viewBox="0 0 21 21" fill="none" xmlns="http://www.w3.org/2000/svg">
<path d="M19.735 10.08L10.735 1.08C10.375 0.72 9.87501 0.5 9.32501 0.5H2.32501C1.22501 0.5 0.325012 1.4 0.325012 2.5V9.5C0.325012 10.05 0.545012 10.55 0.915012 10.92L9.91501 19.92C10.275 20.28 10.775 20.5 11.325 20.5C11.875 20.5 12.375 20.28 12.735 19.91L19.735 12.91C20.105 12.55 20.325 12.05 20.325 11.5C20.325 10.95 20.095 10.44 19.735 10.08ZM3.82501 5.5C2.99501 5.5 2.32501 4.83 2.32501 4C2.32501 3.17 2.99501 2.5 3.82501 2.5C4.65501 2.5 5.32501 3.17 5.32501 4C5.32501 4.83 4.65501 5.5 3.82501 5.5Z" fill="#5E3AE6"/>
</svg>
