<svg width="21" height="21" viewBox="0 0 21 21" fill="none" xmlns="http://www.w3.org/2000/svg">
<path d="M10.0636 19.429H1.59187C1.25615 19.4283 0.934411 19.3001 0.696984 19.0726L0.66472 19.0335C0.449327 18.8125 0.328156 18.5222 0.325104 18.2197L0.325104 1.7142C0.325235 1.55482 0.358147 1.39702 0.421958 1.24984C0.485769 1.10266 0.579226 0.968984 0.696984 0.856453L0.736039 0.825528C0.966537 0.618939 1.26952 0.502775 1.58508 0.500008L15.9271 0.500008C16.2628 0.500867 16.5845 0.629066 16.8218 0.856586C17.0592 1.0841 17.1929 1.39244 17.1938 1.7142V9.75457C16.8376 9.65951 16.4734 9.59416 16.1054 9.55925V1.7142C16.1013 1.67096 16.081 1.63062 16.0482 1.60068C16.0154 1.57073 15.9723 1.55324 15.9271 1.55144H1.59187C1.55122 1.55167 1.5118 1.56483 1.4798 1.58887L1.46621 1.6019C1.43288 1.63388 1.41398 1.67713 1.41357 1.72234V18.2149C1.4131 18.2534 1.42694 18.2909 1.45263 18.3206L1.46791 18.3337C1.48375 18.35 1.50292 18.3631 1.52424 18.3721C1.54557 18.381 1.56859 18.3857 1.59187 18.3857H9.4455C9.61588 18.7518 9.82289 19.1012 10.0636 19.429ZM14.7894 13.8659H15.2801C15.3252 13.8656 15.3699 13.874 15.4116 13.8905C15.4533 13.907 15.4911 13.9313 15.5229 13.9619C15.5876 14.0242 15.6242 14.1084 15.6248 14.1963V15.9248H17.2533C17.3433 15.9248 17.4297 15.9591 17.4934 16.0202C17.5571 16.0812 17.5929 16.164 17.5929 16.2503V16.7386C17.5912 16.8263 17.5548 16.9101 17.491 16.973L17.4774 16.9844C17.4147 17.039 17.3329 17.0692 17.2482 17.069H14.589C14.5439 17.069 14.5008 17.0519 14.4689 17.0213C14.4371 16.9908 14.4192 16.9494 14.4192 16.9063V14.1719C14.4247 14.0925 14.4603 14.0178 14.5194 13.9619C14.551 13.931 14.5888 13.9064 14.6305 13.8896C14.6722 13.8728 14.717 13.8642 14.7622 13.8643L14.7894 13.8659ZM15.438 11.1413C16.5677 11.1402 17.6628 11.5147 18.5367 12.2009C19.4106 12.8871 20.0092 13.8425 20.2304 14.9044C20.4516 15.9662 20.2817 17.0687 19.7498 18.024C19.2179 18.9792 18.3568 19.7281 17.3133 20.1429C16.2698 20.5578 15.1085 20.6129 14.0274 20.299C12.9462 19.985 12.0121 19.3214 11.3843 18.4212C10.7564 17.5211 10.4737 16.44 10.5844 15.3624C10.695 14.2848 11.1921 13.2774 11.9909 12.5117C12.4432 12.0772 12.9805 11.7325 13.572 11.4973C14.1635 11.2622 14.7976 11.1412 15.438 11.1413ZM18.1991 13.1742C17.56 12.5619 16.7192 12.1809 15.82 12.0962C14.9207 12.0115 14.0186 12.2283 13.2674 12.7097C12.5162 13.191 11.9624 13.9071 11.7003 14.736C11.4382 15.5648 11.4841 16.4552 11.8301 17.2552C12.1761 18.0553 12.8009 18.7156 13.5979 19.1237C14.3949 19.5318 15.3149 19.6623 16.201 19.4931C17.0872 19.3239 17.8848 18.8654 18.4578 18.1958C19.0308 17.5261 19.3439 16.6867 19.3436 15.8206C19.3444 15.3291 19.2439 14.8423 19.0478 14.3881C18.8516 13.9339 18.5638 13.5214 18.2008 13.1742H18.1991ZM7.57761 14.0693C7.43502 14.0443 7.30613 13.9721 7.21333 13.8653C7.12054 13.7585 7.06973 13.624 7.06973 13.485C7.06973 13.3461 7.12054 13.2115 7.21333 13.1048C7.30613 12.998 7.43502 12.9258 7.57761 12.9007H9.20437C9.34695 12.9258 9.47585 12.998 9.56864 13.1048C9.66144 13.2115 9.71225 13.3461 9.71225 13.485C9.71225 13.624 9.66144 13.7585 9.56864 13.8653C9.47585 13.9721 9.34695 14.0443 9.20437 14.0693H7.57761ZM3.84183 12.5589H5.3701C5.39794 12.5564 5.42602 12.5595 5.45253 12.5681C5.47904 12.5766 5.50339 12.5903 5.52402 12.6084C5.54466 12.6265 5.56111 12.6486 5.57233 12.6731C5.58355 12.6977 5.58928 12.7242 5.58916 12.751V14.2158C5.58916 14.2668 5.56804 14.3156 5.53047 14.3516C5.49289 14.3877 5.44192 14.4079 5.38878 14.4079H3.86051C3.80737 14.4079 3.7564 14.3877 3.71882 14.3516C3.68125 14.3156 3.66013 14.2668 3.66013 14.2158V12.751C3.66013 12.7258 3.66532 12.7008 3.67539 12.6775C3.68546 12.6542 3.70022 12.633 3.71882 12.6152C3.73743 12.5973 3.75952 12.5832 3.78383 12.5735C3.80814 12.5639 3.83419 12.5589 3.86051 12.5589H3.84183ZM3.84183 4.10515H5.3701C5.39794 4.10265 5.42602 4.10577 5.45253 4.11429C5.47904 4.12282 5.50339 4.13657 5.52402 4.15466C5.54466 4.17275 5.56111 4.19478 5.57233 4.21933C5.58355 4.24388 5.58928 4.27041 5.58916 4.29721V5.76205C5.58916 5.81299 5.56804 5.86184 5.53047 5.89786C5.49289 5.93388 5.44192 5.95411 5.38878 5.95411H3.86051C3.80737 5.95411 3.7564 5.93388 3.71882 5.89786C3.68125 5.86184 3.66013 5.81299 3.66013 5.76205V4.29721C3.66013 4.24627 3.68125 4.19742 3.71882 4.1614C3.7564 4.12539 3.80737 4.10515 3.86051 4.10515H3.84183ZM7.57761 5.61394C7.42992 5.6003 7.29374 5.53157 7.19844 5.42256C7.10314 5.31356 7.05636 5.17302 7.06818 5.03126C7.05634 4.88932 7.10307 4.74859 7.19833 4.63933C7.29359 4.53007 7.42977 4.46099 7.57761 4.44695H13.6126C13.7604 4.46099 13.8966 4.53007 13.9919 4.63933C14.0871 4.74859 14.1339 4.88932 14.122 5.03126C14.1338 5.17302 14.0871 5.31356 13.9918 5.42256C13.8965 5.53157 13.7603 5.6003 13.6126 5.61394H7.57761ZM3.43938 9.30535C3.41192 9.27125 3.39178 9.23226 3.38015 9.19065C3.36852 9.14904 3.36562 9.10563 3.37162 9.06293C3.37763 9.02024 3.39241 8.97911 3.41512 8.94194C3.43783 8.90476 3.46801 8.87228 3.50391 8.84636C3.57169 8.78359 3.66146 8.74731 3.75567 8.7446C3.84987 8.74189 3.94175 8.77295 4.01334 8.83171L4.36993 9.1849L5.26143 8.31251C5.29546 8.28394 5.33529 8.26244 5.37841 8.24935C5.42154 8.23627 5.46702 8.23188 5.512 8.23647C5.55699 8.24105 5.60049 8.25451 5.63978 8.276C5.67906 8.2975 5.71328 8.32655 5.74028 8.36134C5.80797 8.42442 5.84862 8.50947 5.85427 8.5998C5.85993 8.69013 5.83018 8.77922 5.77085 8.84962L4.58219 10.0117C4.54805 10.0401 4.5082 10.0614 4.46511 10.0743C4.42202 10.0873 4.37661 10.0916 4.3317 10.087C4.28679 10.0824 4.24335 10.069 4.20406 10.0477C4.16478 10.0263 4.13049 9.99748 4.10333 9.9629L4.07616 9.93197C4.05713 9.91967 4.03948 9.90548 4.02352 9.88966L3.43938 9.30535ZM7.5827 9.74317C7.43487 9.72913 7.29869 9.66005 7.20343 9.55079C7.10817 9.44153 7.06143 9.3008 7.07328 9.15886C7.06143 9.01692 7.10817 8.8762 7.20343 8.76693C7.29869 8.65767 7.43487 8.58859 7.5827 8.57455H13.6126C13.7604 8.58859 13.8966 8.65767 13.9919 8.76693C14.0871 8.8762 14.1339 9.01692 14.122 9.15886C14.1339 9.3008 14.0871 9.44153 13.9919 9.55079C13.8966 9.66005 13.7604 9.72913 13.6126 9.74317H7.5827Z" fill="#F8991A"/>
</svg>
