<svg width="30" height="30" viewBox="0 0 30 30" fill="none" xmlns="http://www.w3.org/2000/svg">
<path d="M26.1632 1.46261C26.1632 0.658587 25.4665 0 24.6167 0H1.54587C0.696074 0 0 0.659173 0 1.46261V28.5368C0 29.3408 0.696074 30 1.54587 30H2.99566C2.79236 29.6857 2.64917 29.3344 2.58161 28.9626H1.28864C1.2031 28.9626 1.12686 28.8916 1.12686 28.8095V1.32538C1.12686 1.24269 1.2031 1.17232 1.28864 1.17232H24.9161C25.0023 1.17232 25.0779 1.2468 25.0779 1.32538V20.2367L26.1632 20.2361V1.46261ZM6.65517 12.1982C6.37934 12.1982 6.15558 11.9859 6.15558 11.725C6.15558 11.464 6.37934 11.2517 6.65517 11.2517H16.6103C16.8862 11.2517 17.1099 11.464 17.1099 11.725C17.1099 11.9859 16.8862 12.1982 16.6103 12.1982H6.65517ZM6.65517 19.9482C6.37934 19.9482 6.15558 19.7365 6.15558 19.4749C6.15558 19.214 6.37934 19.0022 6.65517 19.0022H18.8455C19.1219 19.0022 19.3457 19.214 19.3457 19.4749C19.3457 19.7365 19.1219 19.9482 18.8455 19.9482H6.65517ZM6.65517 17.0781C6.37934 17.0781 6.15558 16.8664 6.15558 16.6054C6.15558 16.3439 6.37934 16.1321 6.65517 16.1321H16.6103C16.8862 16.1321 17.1099 16.3439 17.1099 16.6054C17.1099 16.8664 16.8862 17.0781 16.6103 17.0781H6.65517ZM21.3273 14.6836H4.83595V20.3458C4.47397 20.4402 4.13492 20.5974 3.83554 20.8027V9.34044C3.83554 9.07946 4.05992 8.86776 4.33574 8.86776H21.8275C22.1033 8.86776 22.3271 9.07946 22.3271 9.34044V20.2379H21.3273V14.6836ZM4.83595 13.7377H21.3273V9.8137H4.83595V13.7377ZM3.9626 3.61431H4.82045V7.01046H3.9626V3.61431ZM5.54132 3.61431H6.33967L7.37727 5.48979V3.61431H8.18554V7.01046H7.37727L6.34525 5.14554V7.01046H5.54132V3.61431ZM8.58533 3.61431H9.47913L10.1027 6.05865L10.7169 3.61431H11.5847L10.5576 7.01046H9.63099L8.58533 3.61431ZM12.1023 4.02072C12.6056 3.40436 13.7101 3.3938 14.219 4.01192C14.6609 4.5497 14.6957 5.64344 14.4298 6.26273C14.3207 6.51608 14.1626 6.71489 13.9574 6.85564C13.5502 7.13537 12.8337 7.13596 12.4128 6.88496C12.2083 6.76298 12.0421 6.56945 11.9145 6.30554C11.6132 5.67862 11.651 4.57375 12.1023 4.02072ZM12.7345 6.05571C12.9397 6.3507 13.381 6.36008 13.5874 6.0604C13.7919 5.76307 13.7969 4.8746 13.5806 4.5714C13.3686 4.27466 12.9446 4.27583 12.7357 4.57433C12.5231 4.8787 12.5225 5.75134 12.7345 6.05571ZM15.189 3.61431H16.0475V7.01046H15.189V3.61431ZM18.605 5.62115L19.355 5.89854C19.3048 6.156 19.2248 6.3724 19.1163 6.54423C19.0085 6.71665 18.8733 6.84801 18.7134 6.93598C18.5529 7.02277 18.3483 7.06793 18.1004 7.06793C17.7992 7.06793 17.5531 7.01456 17.3622 6.90724C17.1713 6.80051 17.0064 6.6105 16.8682 6.34132C16.7306 6.07213 16.6605 5.72495 16.6605 5.30447C16.6605 4.74382 16.782 4.31102 17.0262 4.01017C17.2692 3.70873 17.6145 3.55742 18.0601 3.55742C18.4091 3.55742 18.6837 3.64422 18.8833 3.81722C19.0822 3.99023 19.231 4.2553 19.3277 4.6148L18.574 4.81947C18.5479 4.71684 18.5194 4.64119 18.4909 4.59427C18.4432 4.51451 18.3837 4.45294 18.3155 4.41013C18.2463 4.36722 18.1652 4.34458 18.0824 4.34503C17.8878 4.34503 17.7397 4.44121 17.6362 4.63181C17.5593 4.77314 17.5184 4.99599 17.5184 5.2986C17.5184 5.67452 17.5649 5.93197 17.6585 6.07155C17.7514 6.21054 17.8829 6.28032 18.0514 6.28032C18.2151 6.28032 18.339 6.22344 18.4227 6.11084C18.5058 5.99883 18.5671 5.83521 18.605 5.62115ZM19.8694 3.61431H22.1585V4.34034H20.7279V4.88105H22.0543V5.57365H20.7279V6.24279H22.2006V7.01046H19.8694V3.61431Z" fill="#ED5A59"/>
<path d="M5.65104 21.6682L28.3847 21.6571C28.826 21.6565 29.2277 21.8278 29.5209 22.1034L29.524 22.1057C29.8147 22.3825 29.995 22.762 29.9957 23.179L30 28.4647C30 28.8816 29.8196 29.2622 29.5283 29.539L29.5252 29.542C29.2333 29.817 28.8322 29.9883 28.3922 29.9888L5.65723 30C5.21653 30 4.81426 29.8293 4.52232 29.5537L4.51922 29.5508C4.2279 29.2745 4.0469 28.8951 4.0469 28.4781L4.04256 23.1919C4.04256 22.7749 4.22294 22.3943 4.51426 22.1175L4.51736 22.1151C4.8093 21.8395 5.21033 21.6682 5.65104 21.6682Z" fill="#D30000"/>
<path d="M9.84174 26.6314C9.84174 26.7751 9.81942 26.9059 9.77479 27.0232C9.73017 27.141 9.65145 27.2407 9.53678 27.3234C9.42273 27.4067 9.26653 27.4712 9.06818 27.5187C8.86922 27.5656 8.61632 27.5891 8.30888 27.5891C8.00145 27.5891 7.74793 27.5656 7.54959 27.5187C7.35124 27.4712 7.19504 27.4067 7.08099 27.3234C6.96694 27.2407 6.88698 27.141 6.84236 27.0232C6.79773 26.9059 6.77541 26.7751 6.77541 26.6314V24.3079C6.77541 24.2481 6.78967 24.2047 6.81818 24.1783C6.84607 24.1519 6.89194 24.139 6.95455 24.139H7.73306C7.79628 24.139 7.84215 24.1519 7.87004 24.1783C7.89793 24.2047 7.91157 24.2481 7.91157 24.3079V26.4484C7.91157 26.5106 7.93698 26.5634 7.98657 26.6056C8.03616 26.6478 8.14649 26.6689 8.31942 26.6689C8.49422 26.6689 8.60641 26.6478 8.65661 26.6056C8.70558 26.5634 8.73099 26.5106 8.73099 26.4484V24.3079C8.73099 24.2481 8.74463 24.2047 8.77252 24.1783C8.80103 24.1519 8.84628 24.139 8.9095 24.139H9.66322C9.72645 24.139 9.77169 24.1519 9.80021 24.1783C9.8281 24.2047 9.84174 24.2481 9.84174 24.3079V26.6314ZM11.4248 27.5187H10.681C10.6178 27.5187 10.5725 27.5052 10.544 27.4782C10.5161 27.4518 10.5025 27.409 10.5025 27.3492V24.3079C10.5025 24.2481 10.5161 24.2047 10.544 24.1783C10.5725 24.1519 10.6178 24.139 10.681 24.139H11.1973C11.2593 24.139 11.3132 24.1478 11.3579 24.1671C11.4025 24.1853 11.4471 24.2181 11.4899 24.2657L12.4519 25.3078V24.3079C12.4519 24.2481 12.4661 24.2047 12.4946 24.1783C12.5225 24.1519 12.5678 24.139 12.631 24.139H13.3754C13.438 24.139 13.4833 24.1519 13.5118 24.1783C13.5397 24.2047 13.5533 24.2481 13.5533 24.3079V27.3492C13.5533 27.409 13.5397 27.4518 13.5118 27.4782C13.4833 27.5052 13.438 27.5187 13.3754 27.5187H12.631C12.5678 27.5187 12.5225 27.5052 12.4946 27.4782C12.4661 27.4518 12.4519 27.409 12.4519 27.3492V26.7722L11.6039 25.8004V27.3492C11.6039 27.409 11.5897 27.4518 11.5612 27.4782C11.5333 27.5052 11.488 27.5187 11.4248 27.5187ZM15.186 27.5187H14.4174C14.3541 27.5187 14.3083 27.5052 14.2804 27.4782C14.2525 27.4518 14.2382 27.409 14.2382 27.3492V24.3079C14.2382 24.2481 14.2525 24.2047 14.2804 24.1783C14.3083 24.1519 14.3541 24.139 14.4174 24.139H15.9347C16.3853 24.139 16.6928 24.2234 16.8583 24.3917C17.0238 24.5606 17.1062 24.7811 17.1062 25.0538V25.655C17.1062 25.9271 17.0238 26.1476 16.8583 26.3165C16.6928 26.486 16.3853 26.5704 15.9347 26.5704H15.3645V27.3492C15.3645 27.409 15.3508 27.4518 15.3223 27.4782C15.2944 27.5052 15.2486 27.5187 15.186 27.5187ZM15.3545 25.0163V25.7253H15.8014C15.8969 25.7253 15.9601 25.7013 15.9899 25.655C16.0196 25.608 16.0345 25.5547 16.0345 25.4949V25.2462C16.0345 25.187 16.0196 25.1336 15.9899 25.0873C15.9601 25.0398 15.8969 25.0163 15.8014 25.0163H15.3545ZM18.8678 25.1242L18.6347 25.8379H19.4138L19.1808 25.1242C19.1665 25.0961 19.1529 25.0755 19.138 25.0632C19.1231 25.0509 19.1064 25.0445 19.086 25.0445H18.962C18.9422 25.0445 18.9248 25.0509 18.9099 25.0632C18.895 25.0755 18.8808 25.0961 18.8678 25.1242ZM18.5851 27.3492C18.5851 27.409 18.5709 27.4518 18.5424 27.4782C18.5145 27.5052 18.4692 27.5187 18.406 27.5187H17.6771C17.6138 27.5187 17.5686 27.5052 17.5401 27.4782C17.5122 27.4518 17.4986 27.409 17.4986 27.3492V26.11C17.4986 26.0162 17.5141 25.9083 17.5457 25.7863C17.5767 25.6643 17.6256 25.5218 17.6919 25.3588L18.1233 24.2938C18.1432 24.2398 18.1736 24.2011 18.2157 24.1759C18.2566 24.1513 18.3105 24.139 18.3762 24.139H19.7107C19.774 24.139 19.826 24.1513 19.8676 24.1759C19.9091 24.2011 19.9395 24.2398 19.9593 24.2938L20.3907 25.3588C20.457 25.5218 20.506 25.6643 20.5376 25.7863C20.5692 25.9083 20.5841 26.0162 20.5841 26.11V27.3492C20.5841 27.409 20.5705 27.4518 20.5426 27.4782C20.5141 27.5052 20.4688 27.5187 20.4056 27.5187H19.6568C19.5905 27.5187 19.5421 27.5052 19.5105 27.4782C19.4789 27.4518 19.4628 27.409 19.4628 27.3492V26.6924H18.5851V27.3492ZM21.2938 27.5187C21.2312 27.5187 21.186 27.5052 21.1574 27.4782C21.1295 27.4518 21.1153 27.409 21.1153 27.3492V26.7909C21.1153 26.7317 21.1295 26.6883 21.1574 26.6619C21.186 26.6355 21.2312 26.622 21.2938 26.622H21.7853V25.0445H21.2938C21.2312 25.0445 21.186 25.031 21.1574 25.0046C21.1295 24.9782 21.1153 24.9348 21.1153 24.8756V24.3079C21.1153 24.2481 21.1295 24.2047 21.1574 24.1783C21.186 24.1519 21.2312 24.139 21.2938 24.139H23.4074C23.4707 24.139 23.5165 24.1519 23.5444 24.1783C23.5723 24.2047 23.5859 24.2481 23.5859 24.3079V24.8756C23.5859 24.9348 23.5723 24.9782 23.5444 25.0046C23.5165 25.031 23.4707 25.0445 23.4074 25.0445H22.9264V26.622H23.4074C23.4707 26.622 23.5165 26.6355 23.5444 26.6619C23.5723 26.6883 23.5859 26.7317 23.5859 26.7909V27.3492C23.5859 27.409 23.5723 27.4518 23.5444 27.4782C23.5165 27.5052 23.4707 27.5187 23.4074 27.5187H21.2938ZM26.0473 27.5187H24.3756C24.3124 27.5187 24.2665 27.5052 24.2386 27.4782C24.2101 27.4518 24.1965 27.409 24.1965 27.3492V24.3079C24.1965 24.2481 24.2101 24.2047 24.2386 24.1783C24.2665 24.1519 24.3124 24.139 24.3756 24.139H26.0473C26.4607 24.139 26.7676 24.217 26.9678 24.3736C27.1674 24.5301 27.2678 24.7706 27.2678 25.0961V26.561C27.2678 26.8859 27.1674 27.1275 26.9678 27.2841C26.7676 27.4407 26.4607 27.5187 26.0473 27.5187ZM25.3227 25.0351V26.6314H25.9134C25.9928 26.6314 26.051 26.6126 26.0895 26.5751C26.1273 26.537 26.1465 26.4795 26.1465 26.4009V25.2603C26.1465 25.1823 26.1273 25.1248 26.0895 25.089C26.051 25.0527 25.9928 25.0351 25.9134 25.0351H25.3227Z" fill="white"/>
</svg>
